<?xml version="1.0" encoding="UTF-8"?>
<svg id="Calque_2" data-name="Calque 2" xmlns="http://www.w3.org/2000/svg" xmlns:xlink="http://www.w3.org/1999/xlink" viewBox="0 0 291.11 54.76">
  <defs>
    <style>
      .cls-1 {
        fill: url(#Gradient-ckc);
      }

      .cls-2 {
        fill: url(#Gradient-ckc-5);
      }

      .cls-3 {
        fill: url(#Gradient-ckc-4);
      }

      .cls-4 {
        fill: url(#Gradient-ckc-3);
      }

      .cls-5 {
        fill: url(#Gradient-ckc-2);
      }

      .cls-6 {
        fill: url(#Gradient-ckc-6);
      }
    </style>
    <linearGradient id="Gradient-ckc" x1="-2.88" y1="34.08" x2="296.22" y2="34.08" gradientUnits="userSpaceOnUse">
      <stop offset="0" stop-color="#e94e6f"/>
      <stop offset="1" stop-color="#f39870"/>
    </linearGradient>
    <linearGradient id="Gradient-ckc-2" data-name="Gradient-ckc" y1="26.55" y2="26.55" xlink:href="#Gradient-ckc"/>
    <linearGradient id="Gradient-ckc-3" data-name="Gradient-ckc" y1="33.79" y2="33.79" xlink:href="#Gradient-ckc"/>
    <linearGradient id="Gradient-ckc-4" data-name="Gradient-ckc" y1="34.15" y2="34.15" xlink:href="#Gradient-ckc"/>
    <linearGradient id="Gradient-ckc-5" data-name="Gradient-ckc" y1="28.04" y2="28.04" xlink:href="#Gradient-ckc"/>
    <linearGradient id="Gradient-ckc-6" data-name="Gradient-ckc" y1="33.68" y2="33.68" xlink:href="#Gradient-ckc"/>
  </defs>
  <g id="Calque_1-2" data-name="Calque 1">
    <g>
      <g>
        <path class="cls-1" d="m87.57,34.04c0-2.67.46-5.19,1.38-7.57.92-2.38,2.26-4.46,4-6.26,1.75-1.79,3.86-3.22,6.33-4.29,2.47-1.07,5.26-1.6,8.37-1.6,4.17,0,7.72.9,10.66,2.69,2.93,1.79,5.13,4.15,6.58,7.06l-9.53,2.91c-.83-1.41-1.92-2.48-3.27-3.24-1.36-.75-2.86-1.13-4.51-1.13-1.41,0-2.72.28-3.93.84-1.21.56-2.27,1.33-3.16,2.33-.9.99-1.6,2.19-2.11,3.6-.51,1.41-.76,2.96-.76,4.66s.27,3.25.8,4.66c.53,1.41,1.25,2.62,2.15,3.64.9,1.02,1.95,1.81,3.16,2.36,1.21.56,2.5.84,3.86.84,1.75,0,3.36-.44,4.84-1.31,1.48-.87,2.51-1.94,3.09-3.2l9.53,2.91c-1.31,2.91-3.47,5.29-6.47,7.13-3.01,1.84-6.62,2.76-10.84,2.76-3.1,0-5.89-.53-8.37-1.6-2.47-1.07-4.58-2.51-6.33-4.33s-3.09-3.93-4.04-6.33c-.95-2.4-1.42-4.91-1.42-7.53Z"/>
        <path class="cls-5" d="m151.95,53.1l-11.06-16.51-5.24,5.16v11.35h-9.75V0h9.75v32.23l15.28-17.17h10.4l-14.19,16.15,15.2,21.9h-10.4Z"/>
        <path class="cls-1" d="m157.04,34.04c0-2.67.46-5.19,1.38-7.57.92-2.38,2.26-4.46,4-6.26,1.75-1.79,3.86-3.22,6.33-4.29,2.47-1.07,5.26-1.6,8.37-1.6,4.17,0,7.72.9,10.66,2.69,2.93,1.79,5.13,4.15,6.58,7.06l-9.53,2.91c-.83-1.41-1.92-2.48-3.27-3.24-1.36-.75-2.86-1.13-4.51-1.13-1.41,0-2.72.28-3.93.84-1.21.56-2.27,1.33-3.16,2.33-.9.99-1.6,2.19-2.11,3.6-.51,1.41-.76,2.96-.76,4.66s.27,3.25.8,4.66c.53,1.41,1.25,2.62,2.15,3.64.9,1.02,1.95,1.81,3.16,2.36,1.21.56,2.5.84,3.86.84,1.75,0,3.36-.44,4.84-1.31,1.48-.87,2.51-1.94,3.09-3.2l9.53,2.91c-1.31,2.91-3.47,5.29-6.47,7.13-3.01,1.84-6.62,2.76-10.84,2.76-3.1,0-5.89-.53-8.37-1.6-2.47-1.07-4.58-2.51-6.33-4.33s-3.09-3.93-4.04-6.33c-.95-2.4-1.42-4.91-1.42-7.53Z"/>
        <path class="cls-4" d="m229.06,53.1h-6.4v-21.24c0-4.07-.62-7.03-1.85-8.87-1.24-1.84-3.12-2.76-5.64-2.76-1.31,0-2.62.25-3.93.76-1.31.51-2.55,1.2-3.71,2.07-1.16.87-2.18,1.92-3.06,3.13-.87,1.21-1.53,2.55-1.96,4v22.91h-6.4V15.13h5.82v8.15c1.5-2.67,3.67-4.8,6.51-6.4,2.84-1.6,5.93-2.4,9.28-2.4,2.18,0,4,.4,5.46,1.2,1.45.8,2.62,1.92,3.49,3.35.87,1.43,1.49,3.12,1.86,5.06.36,1.94.55,4.05.55,6.33v22.7Z"/>
        <path class="cls-3" d="m250.74,53.83c-2.86,0-5.48-.52-7.86-1.56-2.38-1.04-4.41-2.46-6.11-4.26-1.7-1.79-3.02-3.89-3.96-6.29-.95-2.4-1.42-4.93-1.42-7.6s.47-5.19,1.42-7.57c.95-2.38,2.28-4.46,4-6.26,1.72-1.79,3.77-3.21,6.15-4.26,2.38-1.04,4.99-1.56,7.86-1.56s5.47.53,7.82,1.6c2.35,1.07,4.35,2.49,6,4.26,1.65,1.77,2.92,3.83,3.82,6.18.9,2.35,1.35,4.79,1.35,7.31,0,.53-.01,1.02-.04,1.45-.03.44-.06.78-.11,1.02h-31.5c.15,1.89.58,3.61,1.31,5.16.73,1.55,1.67,2.89,2.84,4,1.16,1.12,2.48,1.99,3.96,2.62,1.48.63,3.04.95,4.69.95,1.16,0,2.3-.16,3.42-.47,1.12-.31,2.16-.74,3.13-1.27.97-.53,1.83-1.19,2.58-1.96.75-.78,1.32-1.65,1.71-2.62l5.53,1.53c-.63,1.41-1.49,2.69-2.58,3.86-1.09,1.16-2.35,2.17-3.78,3.02-1.43.85-3.02,1.52-4.76,2-1.75.48-3.56.73-5.46.73Zm13.02-22.26c-.15-1.79-.59-3.46-1.35-4.98-.75-1.53-1.7-2.82-2.84-3.89-1.14-1.07-2.46-1.9-3.96-2.51-1.5-.61-3.1-.91-4.8-.91s-3.3.3-4.8.91c-1.5.61-2.83,1.45-3.96,2.55-1.14,1.09-2.06,2.39-2.76,3.89-.7,1.5-1.13,3.15-1.27,4.95h25.75Z"/>
        <path class="cls-2" d="m291.11,51.21c-.39.19-.9.43-1.53.69-.63.27-1.35.53-2.15.8-.8.27-1.67.48-2.62.65-.95.17-1.93.25-2.95.25-2.33,0-4.34-.64-6.04-1.93-1.7-1.28-2.55-3.28-2.55-6v-25.53h-5.16v-5.02h5.16V2.47h6.4v12.66h8.51v5.02h-8.51v23.57c.1,1.41.56,2.43,1.38,3.06.82.63,1.79.95,2.91.95,1.26,0,2.41-.21,3.46-.62,1.04-.41,1.76-.74,2.15-.98l1.53,5.09Z"/>
      </g>
      <path class="cls-6" d="m44.71,12.8c-8.21-.38-16.43-.26-24.62.42-3.93.33-7.29.73-8.26,1.19-2.54,1.21-4.69,2.79-6.45,4.75-1.76,1.95-3.1,4.17-4.02,6.65-.92,2.48-1.38,4.99-1.38,7.53s.5,5.27,1.49,7.83c1,2.56,2.38,4.85,4.16,6.86,1.78,2.01,3.9,3.64,6.36,4.89,2.15,1.09,17.68,1.7,23.6,1.84.38,0,.59-.45.32-.72-1.7-1.7-5.75-5.75-6.49-6.49-.08-.08-.18-.12-.28-.12-5.91-.19-12.85-.51-13.71-.95-1.5-.78-2.79-1.82-3.87-3.11-1.08-1.29-1.91-2.78-2.49-4.48-.59-1.7-.88-3.47-.88-5.3,0-1.64.25-3.29.76-4.95.51-1.66,1.26-3.15,2.26-4.45,1-1.31,2.25-2.37,3.75-3.19,1.49-.81,20.49-1.22,22.59-1.23h0c.38,0,.56.46.3.72l-12.26,12.26c-.17.17-.17.44,0,.6l14.27,14.27,6.81,6.81c.08.08.2.13.32.12,3.27-.15,6.9-.37,9.91-.64,3.06-.28,5.48-.61,6.21-.98,2.46-1.25,4.58-2.88,6.36-4.89,1.78-2.01,3.17-4.3,4.16-6.86,1-2.56,1.49-5.17,1.49-7.83s-.46-5.05-1.38-7.53c-.92-2.48-2.26-4.7-4.02-6.65-1.34-1.49-2.91-2.75-4.7-3.81-.17-.1-.38-.07-.52.07l-4.77,4.77c-.23.23-.13.62.18.71.1.03.17.06.22.08,1.5.82,2.75,1.89,3.75,3.19,1,1.31,1.75,2.79,2.26,4.45.51,1.66.76,3.31.76,4.95,0,1.84-.29,3.6-.88,5.3s-1.42,3.19-2.49,4.48c-1.07,1.29-2.36,2.33-3.87,3.11-.63.33-4.7.59-9.22.79-.12,0-.24-.04-.32-.12l-13.8-13.8c-.17-.17-.17-.44,0-.6l12.67-12.67,6.01-6.01c.26-.26.1-.7-.27-.73-2.99-.2-6.32-.36-9.27-.48l-.78-.04Z"/>
    </g>
  </g>
</svg>